<svg id="图层_1" data-name="图层 1" xmlns="http://www.w3.org/2000/svg" viewBox="0 0 331.63 331.65"><defs><style>.cls-1{font-size:34px;fill:#fff;font-family:Poppins-SemiBold, Poppins;font-weight:600;}</style></defs><text class="cls-1" transform="matrix(1, 0.03, -0.03, 1, 165.72, 28.83)">I</text><text class="cls-1" transform="translate(174.55 28.73) rotate(8.27)">n</text><text class="cls-1" transform="translate(196.07 32.1) rotate(15.48)">t</text><text class="cls-1" transform="translate(208.19 35.15) rotate(22.52)">o</text><text class="cls-1" transform="translate(227.56 43.53) rotate(28.53)"> </text><text class="cls-1" transform="translate(234.34 47.09) rotate(32.8)">t</text><text class="cls-1" transform="matrix(0.77, 0.64, -0.64, 0.77, 245.03, 53.59)">h</text><text class="cls-1" transform="matrix(0.66, 0.75, -0.75, 0.66, 261.62, 67.47)">e</text><text class="cls-1" transform="translate(274.88 82.96) rotate(54.42)"> </text><text class="cls-1" transform="translate(279.77 88.58) rotate(61.8)">w</text><text class="cls-1" transform="matrix(0.31, 0.95, -0.95, 0.31, 292.66, 113.1)">o</text><text class="cls-1" transform="translate(298.96 133.11) rotate(79.13)">r</text><text class="cls-1" transform="translate(301.4 146.16) rotate(83.79)">l</text><text class="cls-1" transform="translate(302.91 154.83) rotate(90.93)">d</text><text class="cls-1" transform="translate(302.3 177.31) rotate(96.43)"> </text><text class="cls-1" transform="translate(301.85 184.83) rotate(102.43)">o</text><text class="cls-1" transform="translate(297.08 205.29) rotate(109.18)">f</text><text class="cls-1" transform="translate(293.31 215.98) rotate(113.19)"> </text><text class="cls-1" transform="matrix(-0.49, 0.87, -0.87, -0.49, 290.71, 223.04)">8</text><text class="cls-1" transform="translate(280.5 241.42) rotate(127.99)">8</text><text class="cls-1" transform="translate(267.32 257.95) rotate(135.1)">r</text><text class="cls-1" transform="translate(257.88 267.27) rotate(139.72)">i</text><text class="cls-1" transform="matrix(-0.82, 0.57, -0.57, -0.82, 251.23, 273.23)">s</text><text class="cls-1" transform="matrix(-0.87, 0.49, -0.49, -0.87, 236.35, 283.29)">i</text><text class="cls-1" transform="translate(228.82 287.93) rotate(157.37)">n</text><text class="cls-1" transform="matrix(-0.97, 0.23, -0.23, -0.97, 208.92, 296.33)">g</text><text class="cls-1" transform="translate(187.04 301.16) rotate(172.85)"> </text><text class="cls-1" transform="translate(179.34 302.14) rotate(176.08)"> </text><text class="cls-1" transform="translate(171.62 302.66) rotate(179.07)"> </text><text class="cls-1" transform="translate(163.84 302.81) rotate(-177.25)">I</text><text class="cls-1" transform="translate(154.99 302.78) rotate(-170.86)">n</text><text class="cls-1" transform="matrix(-0.96, -0.28, 0.28, -0.96, 133.54, 299.08)">t</text><text class="cls-1" transform="translate(121.46 295.86) rotate(-156.61)">o</text><text class="cls-1" transform="matrix(-0.87, -0.49, 0.49, -0.87, 102.24, 287.19)"> </text><text class="cls-1" transform="translate(95.49 283.52) rotate(-146.33)">t</text><text class="cls-1" transform="translate(84.91 276.86) rotate(-139.21)">h</text><text class="cls-1" transform="translate(68.53 262.74) rotate(-130.54)">e</text><text class="cls-1" transform="matrix(-0.57, -0.82, 0.82, -0.57, 55.49, 247.04)"> </text><text class="cls-1" transform="translate(50.68 241.34) rotate(-117.33)">w</text><text class="cls-1" transform="translate(38.16 216.63) rotate(-107.16)">o</text><text class="cls-1" transform="translate(32.17 196.54) rotate(-100)">r</text><text class="cls-1" transform="translate(29.93 183.45) rotate(-95.35)">l</text><text class="cls-1" transform="translate(28.7 174.7) rotate(-88.91)">d</text><text class="cls-1" transform="matrix(0.13, -0.99, 0.99, 0.13, 29.5, 152.27)"> </text><text class="cls-1" transform="translate(30.07 144.76) rotate(-76.7)">o</text><text class="cls-1" transform="translate(35.14 124.38) rotate(-69.95)">f</text><text class="cls-1" transform="translate(39.08 113.74) rotate(-65.93)"> </text><text class="cls-1" transform="matrix(0.5, -0.87, 0.87, 0.5, 41.78, 106.73)">8</text><text class="cls-1" transform="translate(52.26 88.52) rotate(-51.15)">8</text><text class="cls-1" transform="matrix(0.72, -0.7, 0.7, 0.72, 65.7, 72.17)">r</text><text class="cls-1" transform="matrix(0.77, -0.63, 0.63, 0.77, 75.28, 63)">i</text><text class="cls-1" transform="matrix(0.83, -0.56, 0.56, 0.83, 82.01, 57.15)">s</text><text class="cls-1" transform="translate(97.04 47.31) rotate(-28.2)">i</text><text class="cls-1" transform="matrix(0.93, -0.37, 0.37, 0.93, 104.63, 42.79)">n</text><text class="cls-1" transform="matrix(0.98, -0.22, 0.22, 0.98, 124.67, 34.69)">g</text><text class="cls-1" transform="matrix(0.99, -0.11, 0.11, 0.99, 146.63, 30.19)"> </text><text class="cls-1" transform="translate(154.34 29.33) rotate(-3.06)"> </text></svg>