<svg width="21" height="25" viewBox="0 0 21 25" fill="none" xmlns="http://www.w3.org/2000/svg">
<path d="M17.7446 10.1058L17.7447 10.1101L17.7671 12.7523C17.7671 12.7529 17.7671 12.7535 17.7671 12.7541C17.7662 12.9802 17.5869 13.1607 17.3557 13.1607C17.1239 13.1607 16.9443 12.9792 16.9443 12.7523V8.61433C16.9443 7.86268 16.3332 7.22843 15.5666 7.22843C14.8041 7.22843 14.1889 7.84733 14.1889 8.61433V11.5636C14.1889 11.7905 14.0093 11.972 13.7775 11.972C13.5457 11.972 13.3661 11.7905 13.3661 11.5636V7.42565C13.3661 6.67399 12.755 6.03974 11.9884 6.03974C11.2259 6.03974 10.6107 6.65864 10.6107 7.42565V10.3862C10.6107 10.613 10.4311 10.7945 10.1993 10.7945C9.96746 10.7945 9.78784 10.613 9.78784 10.3862V1.88591C9.78784 1.13425 9.1768 0.5 8.41017 0.5C7.64763 0.5 7.03249 1.1189 7.03249 1.88591V15.04C7.03249 15.2068 6.93178 15.3572 6.76751 15.4214C6.59239 15.4785 6.40525 15.4244 6.29846 15.3037C6.29838 15.3036 6.2983 15.3035 6.29821 15.3034L2.77686 11.3007L2.76603 11.2883L2.75441 11.2768C2.49917 11.0224 2.14546 10.8842 1.79383 10.8842C1.43439 10.8842 1.07955 11.0201 0.822007 11.2768C0.479836 11.6178 0.46638 12.0643 0.530512 12.4003C0.594794 12.7371 0.751795 13.0644 0.899464 13.3163C1.92095 15.1145 3.04296 16.8197 4.03155 18.32C4.06089 18.3647 4.09017 18.4094 4.11936 18.4539C4.83189 19.5404 5.49763 20.5556 5.99767 21.4144L5.99855 21.4159C6.32845 21.978 7.00618 23.3687 7.39825 24.1732L7.4206 24.2191L7.55752 24.5H7.87006H18.1771H18.5446L18.6543 24.1493C18.9824 23.1007 19.4409 21.5497 19.8179 20.068C20.1889 18.6096 20.5 17.1489 20.5 16.3184V10.1058C20.5 9.35414 19.889 8.71989 19.1223 8.71989C18.3598 8.71989 17.7446 9.33879 17.7446 10.1058Z" fill="white" stroke="#333333"/>
</svg>
